# xmcd
#
# Track frame offsets: 
#        300
#        13744
#        25020
#        51347
#        74548
#        96606
#        109249
#        124043
#        137517
#        160857
#        172601
#        185430
#        201046
#        218775
#
# Disc length: 3177 seconds
#
# Revision: 6
# Processed by: cddbd v1.5.2PL0 Copyright (c) Steve Scherf et al.
# Submitted via: ExactAudioCopy v0.99pb5
#
DISCID=c40c650e
DTITLE=Bob Margolin - Up and In
DYEAR=1997
DGENRE=Blues
TTITLE0=The Window
TTITLE1=Alien's Blues
TTITLE2=Imagination
TTITLE3=She And The Devil
TTITLE4=Blues For Bartenders
TTITLE5=Why Are People Like That?
TTITLE6=Goin' Back Out On The Road
TTITLE7=Up and In
TTITLE8=Coffee Break
TTITLE9='bout Out
TTITLE10=Not What You Said Last Night
TTITLE11=Long Ago And Far Away
TTITLE12=Just Because
TTITLE13=Later For You
EXTD=
EXTT0=
EXTT1=
EXTT2=
EXTT3=
EXTT4=
EXTT5=
EXTT6=
EXTT7=
EXTT8=
EXTT9=
EXTT10=
EXTT11=
EXTT12=
EXTT13=
PLAYORDER=
